<?xml version="1.0" encoding="UTF-8"?>
<svg id="Layer_1" data-name="Layer 1" xmlns="http://www.w3.org/2000/svg" viewBox="0 0 233.43 135.32">
  <defs>
    <style>
      .cls-1 {
        fill: #231f20;
      }

      .cls-2 {
        fill: #fff;
      }
    </style>
  </defs>
  <path class="cls-1" d="M8.57,70.06c-1.63,0-3.2-.19-4.72-.58-1.51-.38-2.8-.94-3.85-1.66l2.59-6.7c1.39,1.01,3.14,1.51,5.26,1.51,1.63,0,2.9-.52,3.82-1.55.91-1.03,1.37-2.56,1.37-4.57V17.14h9v39.17c0,4.22-1.16,7.57-3.49,10.04-2.33,2.47-5.65,3.71-9.97,3.71Z"/>
  <path class="cls-1" d="M17.5,10.8c-1.68,0-3.06-.53-4.14-1.58-1.08-1.06-1.62-2.35-1.62-3.89,0-1.44.54-2.69,1.62-3.74,1.08-1.06,2.46-1.58,4.14-1.58s3.06.49,4.14,1.48c1.08.98,1.62,2.24,1.62,3.78s-.53,2.84-1.58,3.92c-1.06,1.08-2.45,1.62-4.18,1.62Z"/>
  <path class="cls-1" d="M45.43,56.09c-2.88,0-5.4-.49-7.56-1.48-2.16-.98-3.83-2.35-5-4.1-1.18-1.75-1.76-3.73-1.76-5.94s.52-4.1,1.55-5.83c1.03-1.73,2.72-3.1,5.08-4.1,2.35-1.01,5.47-1.51,9.36-1.51h11.16v5.98h-10.51c-3.02,0-5.08.49-6.16,1.48-1.08.98-1.62,2.22-1.62,3.71,0,1.58.65,2.86,1.94,3.82,1.3.96,3.1,1.44,5.4,1.44s4.19-.5,5.94-1.51c1.75-1.01,3.04-2.5,3.85-4.46l1.44,5.4c-.86,2.26-2.4,4.01-4.61,5.26-2.21,1.25-5.04,1.87-8.5,1.87Z"/>
  <path class="cls-1" d="M57.53,55.58v-7.85l-.43-1.58v-13.61c0-2.64-.8-4.69-2.41-6.16-1.61-1.46-4.04-2.2-7.31-2.2-2.11,0-4.2.34-6.26,1.01-2.06.67-3.84,1.61-5.33,2.81l-3.53-6.55c2.11-1.58,4.58-2.78,7.42-3.6,2.83-.82,5.78-1.22,8.86-1.22,5.62,0,9.94,1.34,12.96,4.03,3.02,2.69,4.54,6.82,4.54,12.38v22.54h-8.5Z"/>
  <path class="cls-1" d="M77.62,55.58V17.14h8.57v10.58l-1.01-3.1c1.1-2.59,2.9-4.57,5.4-5.94,2.5-1.37,5.54-2.05,9.14-2.05v8.57c-.34-.05-.67-.08-1.01-.11-.34-.02-.65-.04-.94-.04-3.46,0-6.19.98-8.21,2.95-2.02,1.97-3.02,4.97-3.02,9v18.58h-8.93Z"/>
  <path class="cls-1" d="M124.34,56.09c-3.89,0-7.38-.85-10.48-2.56-3.1-1.7-5.53-4.04-7.31-7.02-1.78-2.98-2.66-6.36-2.66-10.15s.89-7.3,2.66-10.22c1.78-2.93,4.2-5.24,7.27-6.95,3.07-1.7,6.58-2.56,10.51-2.56s7.52.85,10.62,2.56c3.1,1.7,5.52,4.02,7.27,6.95,1.75,2.93,2.63,6.34,2.63,10.22s-.88,7.24-2.63,10.19c-1.75,2.95-4.19,5.28-7.31,6.98-3.12,1.7-6.65,2.56-10.58,2.56Z"/>
  <path class="cls-2" d="M124.34,48.46c2.21,0,4.18-.49,5.9-1.48,1.73-.98,3.08-2.4,4.07-4.25.98-1.85,1.48-3.97,1.48-6.37s-.49-4.57-1.48-6.37c-.98-1.8-2.34-3.19-4.07-4.18-1.73-.98-3.67-1.48-5.83-1.48s-4.1.49-5.83,1.48c-1.73.98-3.1,2.38-4.1,4.18-1.01,1.8-1.51,3.92-1.51,6.37s.5,4.52,1.51,6.37c1.01,1.85,2.38,3.26,4.1,4.25,1.73.98,3.65,1.48,5.76,1.48Z"/>
  <path class="cls-1" d="M28.23,120.85v-53.42h8.93v25.42l-1.87-3.24c1.3-2.45,3.23-4.34,5.8-5.69,2.57-1.34,5.53-2.02,8.89-2.02,3.12,0,5.87.6,8.24,1.8,2.38,1.2,4.27,3.05,5.69,5.54,1.42,2.5,2.12,5.69,2.12,9.58v22.03h-9v-20.88c0-3.41-.79-5.95-2.38-7.63-1.58-1.68-3.84-2.52-6.77-2.52-2.11,0-3.98.43-5.62,1.3-1.63.86-2.89,2.15-3.78,3.85-.89,1.7-1.33,3.85-1.33,6.44v19.44h-8.93Z"/>
  <rect class="cls-1" x="77.62" y="28.77" width="8.81" height="92.09"/>
  <path class="cls-1" d="M98.36,120.85v-38.45h8.57v10.58l-1.01-3.1c1.1-2.59,2.9-4.57,5.4-5.94,2.5-1.37,5.54-2.05,9.14-2.05v8.57c-.34-.05-.67-.08-1.01-.11-.34-.02-.65-.04-.94-.04-3.46,0-6.19.98-8.21,2.95-2.02,1.97-3.02,4.97-3.02,9v18.58h-8.93Z"/>
  <path class="cls-1" d="M124.5,135.32c-1.63,0-3.2-.19-4.72-.58-1.51-.38-2.8-.94-3.85-1.66l2.59-6.7c1.39,1.01,3.14,1.51,5.26,1.51,1.63,0,2.9-.52,3.82-1.55.91-1.03,1.37-2.56,1.37-4.57v-39.38h9v39.17c0,4.22-1.17,7.57-3.49,10.04-2.33,2.47-5.65,3.71-9.97,3.71Z"/>
  <path class="cls-1" d="M133.43,76.07c-1.68,0-3.06-.53-4.14-1.58-1.08-1.05-1.62-2.35-1.62-3.89,0-1.44.54-2.69,1.62-3.74,1.08-1.06,2.46-1.58,4.14-1.58s3.06.49,4.14,1.48c1.08.98,1.62,2.25,1.62,3.78s-.53,2.84-1.58,3.92c-1.06,1.08-2.45,1.62-4.18,1.62Z"/>
  <path class="cls-2" d="M82.02,72.83c-1.68,0-3.06-.53-4.14-1.58-1.08-1.05-1.62-2.35-1.62-3.89,0-1.44.54-2.69,1.62-3.74,1.08-1.06,2.46-1.58,4.14-1.58s3.06.49,4.14,1.48c1.08.98,1.62,2.25,1.62,3.78s-.53,2.84-1.58,3.92c-1.06,1.08-2.45,1.62-4.18,1.62Z"/>
  <path class="cls-1" d="M161.36,121.36c-2.88,0-5.4-.49-7.56-1.48s-3.83-2.35-5-4.1c-1.18-1.75-1.76-3.73-1.76-5.94s.52-4.1,1.55-5.83c1.03-1.73,2.72-3.1,5.08-4.1,2.35-1.01,5.47-1.51,9.36-1.51h11.16v5.98h-10.51c-3.02,0-5.08.49-6.16,1.48-1.08.98-1.62,2.22-1.62,3.71,0,1.58.65,2.86,1.94,3.82,1.3.96,3.1,1.44,5.4,1.44s4.19-.5,5.94-1.51c1.75-1.01,3.04-2.5,3.85-4.46l1.44,5.4c-.86,2.26-2.4,4.01-4.61,5.26-2.21,1.25-5.04,1.87-8.5,1.87Z"/>
  <path class="cls-1" d="M173.46,120.85v-7.85l-.43-1.58v-13.61c0-2.64-.8-4.69-2.41-6.16-1.61-1.46-4.04-2.2-7.31-2.2-2.11,0-4.2.34-6.26,1.01-2.06.67-3.84,1.61-5.33,2.81l-3.53-6.55c2.11-1.58,4.58-2.78,7.42-3.6,2.83-.82,5.78-1.22,8.86-1.22,5.62,0,9.94,1.34,12.96,4.03,3.02,2.69,4.54,6.82,4.54,12.38v22.54h-8.5Z"/>
  <rect class="cls-1" x="193.54" y="67.43" width="8.93" height="53.42"/>
  <polygon class="cls-1" points="200.82 112.28 201.03 100.98 221.12 82.4 231.92 82.4 214.86 99.47 210.03 103.5 200.82 112.28"/>
  <polygon class="cls-1" points="222.56 120.85 208.38 103.5 214.07 96.3 233.43 120.85 222.56 120.85"/>
</svg>